<?xml version="1.0" encoding="UTF-8" standalone="no"?>
<svg
   xmlns:dc="http://purl.org/dc/elements/1.1/"
   xmlns:cc="http://creativecommons.org/ns#"
   xmlns:rdf="http://www.w3.org/1999/02/22-rdf-syntax-ns#"
   xmlns:svg="http://www.w3.org/2000/svg"
   xmlns="http://www.w3.org/2000/svg"
   width="50mm"
   height="50mm"
   viewBox="0 0 50 50"
   version="1.1"
   id="svg838">
  <defs
     id="defs832">
    <clipPath
       clipPathUnits="userSpaceOnUse"
       id="clipPath1665">
      <circle
         r="10.583333"
         cy="166.7872"
         cx="105.64434"
         id="circle1667"
         style="fill:#ba9d69;fill-opacity:1;stroke-width:0.26458332" />
    </clipPath>
    <clipPath
       clipPathUnits="userSpaceOnUse"
       id="clipPath1683">
      <path
         id="path1685"
         d="m 110.98326,177.51228 -5.00818,11.9535 -4.96094,-12.09524 z"
         style="fill:#e6e6e6;fill-opacity:1;stroke:none;stroke-width:0.26458332px;stroke-linecap:butt;stroke-linejoin:miter;stroke-opacity:1" />
    </clipPath>
    <clipPath
       clipPathUnits="userSpaceOnUse"
       id="clipPath1740">
      <circle
         r="52.142853"
         cy="610.01971"
         cx="698.92859"
         id="circle1742"
         style="fill:#6f7c91;fill-opacity:1;stroke:none;stroke-width:0.99999994" />
    </clipPath>
    <clipPath
       clipPathUnits="userSpaceOnUse"
       id="clipPath1768">
      <circle
         r="52.142849"
         cy="610.01971"
         cx="698.92853"
         id="circle1770"
         style="fill:#6f7c91;fill-opacity:1;stroke:none;stroke-width:0.99999994" />
    </clipPath>
    <clipPath
       clipPathUnits="userSpaceOnUse"
       id="clipPath4565">
      <path
         id="path4567"
         d="m -508.37772,-126.91673 -3.76203,3.59409 h 0.90588 v 3.3321 h 5.71233 v -3.3321 h 0.90588 z"
         style="opacity:1;fill:#b3b3b3;fill-opacity:1;stroke:none;stroke-width:0;stroke-miterlimit:4;stroke-dasharray:none;stroke-opacity:1" />
    </clipPath>
    <clipPath
       clipPathUnits="userSpaceOnUse"
       id="clipPath4649">
      <path
         style="opacity:1;fill:#666666;fill-opacity:1;stroke:none;stroke-width:0;stroke-miterlimit:4;stroke-dasharray:none;stroke-opacity:1"
         d="m -565.85332,-131.21266 a 2.1064651,2.1064651 0 0 0 -2.10632,2.10633 2.1064651,2.1064651 0 0 0 0.36947,1.18804 c 0.31445,0.60733 0.61404,1.20779 0.70281,1.71256 0.004,0.0205 0.01,0.0423 0.013,0.0625 h 0.003 a 1.0368611,0.57846111 0 0 0 1.01957,0.4749 1.0368611,0.57846111 0 0 0 1.03714,-0.57825 1.0368611,0.57846111 0 0 0 0,-0.005 c 0.0792,-0.40962 0.34296,-0.99196 0.69763,-1.65985 a 2.1064651,2.1064651 0 0 0 0.21497,-0.39894 c 0.0114,-0.0205 0.0206,-0.0389 0.032,-0.0594 h -0.0103 a 2.1064651,2.1064651 0 0 0 0.13538,-0.7369 2.1064651,2.1064651 0 0 0 -2.10632,-2.10634 z"
         id="path4651" />
    </clipPath>
    <clipPath
       clipPathUnits="userSpaceOnUse"
       id="clipPath4698">
      <path
         d="m -327.28907,-193.74146 0,31.45817 -27.24358,15.72909 -27.24358,-15.72909 0,-31.45817 27.24358,-15.72909 z"
         id="path4700"
         style="opacity:1;fill:#ccff00;fill-opacity:1;stroke:none;stroke-width:0;stroke-miterlimit:4;stroke-dasharray:none;stroke-opacity:1" />
    </clipPath>
    <clipPath
       clipPathUnits="userSpaceOnUse"
       id="clipPath4706">
      <path
         d="m -327.28907,-193.74146 0,31.45817 -27.24358,15.72909 -27.24358,-15.72909 0,-31.45817 27.24358,-15.72909 z"
         id="path4708"
         style="opacity:1;fill:#ccff00;fill-opacity:1;stroke:none;stroke-width:0;stroke-miterlimit:4;stroke-dasharray:none;stroke-opacity:1" />
    </clipPath>
  </defs>
  <metadata
     id="metadata835">
    <rdf:RDF>
      <cc:Work
         rdf:about="">
        <dc:format>image/svg+xml</dc:format>
        <dc:type
           rdf:resource="http://purl.org/dc/dcmitype/StillImage" />
        <dc:title></dc:title>
      </cc:Work>
    </rdf:RDF>
  </metadata>
  <g
     style="display:inline"
     id="layer1" />
  <g
     id="layer2">
    <path
       transform="rotate(-59.512901,25,25.000002)"
       d="M 39.769395,33.360512 25.323118,25.548828 25.144282,41.970927 24.68626,25.554243 10.374887,33.610415 24.363142,25.005414 10.230605,16.639488 24.676882,24.451172 24.855718,8.0290729 25.31374,24.445757 39.625113,16.389585 25.636858,24.994586 Z"
       id="path4544"
       style="display:inline;opacity:1;fill:#ffffff;fill-opacity:1;stroke:none;stroke-width:0;stroke-miterlimit:4;stroke-dasharray:none;stroke-opacity:1" />
  </g>
</svg>
