<?xml version="1.0" encoding="UTF-8" standalone="no"?>
<svg
   xmlns:dc="http://purl.org/dc/elements/1.1/"
   xmlns:cc="http://creativecommons.org/ns#"
   xmlns:rdf="http://www.w3.org/1999/02/22-rdf-syntax-ns#"
   xmlns:svg="http://www.w3.org/2000/svg"
   xmlns="http://www.w3.org/2000/svg"
   xmlns:sodipodi="http://sodipodi.sourceforge.net/DTD/sodipodi-0.dtd"
   xmlns:inkscape="http://www.inkscape.org/namespaces/inkscape"
   id="svg838"
   version="1.1"
   viewBox="0 0 50 50"
   height="50mm"
   width="50mm"
   sodipodi:docname="12.svg"
   inkscape:version="0.92.1 r15371">
  <sodipodi:namedview
     pagecolor="#ffffff"
     bordercolor="#666666"
     borderopacity="1"
     objecttolerance="10"
     gridtolerance="10"
     guidetolerance="10"
     inkscape:pageopacity="0"
     inkscape:pageshadow="2"
     inkscape:window-width="1920"
     inkscape:window-height="1017"
     id="namedview34"
     showgrid="false"
     inkscape:zoom="4"
     inkscape:cx="71.424919"
     inkscape:cy="98.896041"
     inkscape:window-x="-8"
     inkscape:window-y="-8"
     inkscape:window-maximized="1"
     inkscape:current-layer="layer1" />
  <defs
     id="defs832">
    <clipPath
       id="clipPath1665"
       clipPathUnits="userSpaceOnUse">
      <circle
         style="fill:#ba9d69;fill-opacity:1;stroke-width:0.26458332"
         id="circle1667"
         cx="105.64434"
         cy="166.7872"
         r="10.583333" />
    </clipPath>
    <clipPath
       id="clipPath1683"
       clipPathUnits="userSpaceOnUse">
      <path
         style="fill:#e6e6e6;fill-opacity:1;stroke:none;stroke-width:0.26458332px;stroke-linecap:butt;stroke-linejoin:miter;stroke-opacity:1"
         d="m 110.98326,177.51228 -5.00818,11.9535 -4.96094,-12.09524 z"
         id="path1685" />
    </clipPath>
    <clipPath
       id="clipPath1740"
       clipPathUnits="userSpaceOnUse">
      <circle
         style="fill:#6f7c91;fill-opacity:1;stroke:none;stroke-width:0.99999994"
         id="circle1742"
         cx="698.92859"
         cy="610.01971"
         r="52.142853" />
    </clipPath>
    <clipPath
       id="clipPath1768"
       clipPathUnits="userSpaceOnUse">
      <circle
         style="fill:#6f7c91;fill-opacity:1;stroke:none;stroke-width:0.99999994"
         id="circle1770"
         cx="698.92853"
         cy="610.01971"
         r="52.142849" />
    </clipPath>
    <clipPath
       id="clipPath4565"
       clipPathUnits="userSpaceOnUse">
      <path
         style="opacity:1;fill:#b3b3b3;fill-opacity:1;stroke:none;stroke-width:0;stroke-miterlimit:4;stroke-dasharray:none;stroke-opacity:1"
         d="m -508.37772,-126.91673 -3.76203,3.59409 h 0.90588 v 3.3321 h 5.71233 v -3.3321 h 0.90588 z"
         id="path4567" />
    </clipPath>
    <clipPath
       id="clipPath4649"
       clipPathUnits="userSpaceOnUse">
      <path
         id="path4651"
         d="m -565.85332,-131.21266 a 2.1064651,2.1064651 0 0 0 -2.10632,2.10633 2.1064651,2.1064651 0 0 0 0.36947,1.18804 c 0.31445,0.60733 0.61404,1.20779 0.70281,1.71256 0.004,0.0205 0.01,0.0423 0.013,0.0625 h 0.003 a 1.0368611,0.57846111 0 0 0 1.01957,0.4749 1.0368611,0.57846111 0 0 0 1.03714,-0.57825 1.0368611,0.57846111 0 0 0 0,-0.005 c 0.0792,-0.40962 0.34296,-0.99196 0.69763,-1.65985 a 2.1064651,2.1064651 0 0 0 0.21497,-0.39894 c 0.0114,-0.0205 0.0206,-0.0389 0.032,-0.0594 h -0.0103 a 2.1064651,2.1064651 0 0 0 0.13538,-0.7369 2.1064651,2.1064651 0 0 0 -2.10632,-2.10634 z"
         style="opacity:1;fill:#666666;fill-opacity:1;stroke:none;stroke-width:0;stroke-miterlimit:4;stroke-dasharray:none;stroke-opacity:1" />
    </clipPath>
    <clipPath
       id="clipPath4698"
       clipPathUnits="userSpaceOnUse">
      <path
         style="opacity:1;fill:#ccff00;fill-opacity:1;stroke:none;stroke-width:0;stroke-miterlimit:4;stroke-dasharray:none;stroke-opacity:1"
         id="path4700"
         d="m -327.28907,-193.74146 0,31.45817 -27.24358,15.72909 -27.24358,-15.72909 0,-31.45817 27.24358,-15.72909 z" />
    </clipPath>
    <clipPath
       id="clipPath4706"
       clipPathUnits="userSpaceOnUse">
      <path
         style="opacity:1;fill:#ccff00;fill-opacity:1;stroke:none;stroke-width:0;stroke-miterlimit:4;stroke-dasharray:none;stroke-opacity:1"
         id="path4708"
         d="m -327.28907,-193.74146 0,31.45817 -27.24358,15.72909 -27.24358,-15.72909 0,-31.45817 27.24358,-15.72909 z" />
    </clipPath>
  </defs>
  <metadata
     id="metadata835">
    <rdf:RDF>
      <cc:Work
         rdf:about="">
        <dc:format>image/svg+xml</dc:format>
        <dc:type
           rdf:resource="http://purl.org/dc/dcmitype/StillImage" />
        <dc:title></dc:title>
      </cc:Work>
    </rdf:RDF>
  </metadata>
  <g
     inkscape:groupmode="layer"
     id="layer1"
     inkscape:label="Layer 1"
     style="display:inline">
    <path
       inkscape:transform-center-y="8.547038"
       inkscape:transform-center-x="7.350881"
       style="fill:#4d4d4d;fill-opacity:1;stroke:none;stroke-width:0.26458332px;stroke-linecap:butt;stroke-linejoin:miter;stroke-opacity:1"
       d="M 24.991577,41.979239 24.928083,25.117672 10.293792,33.493469 Z"
       id="path4673"
       inkscape:connector-curvature="0"
       sodipodi:nodetypes="cccc" />
  </g>
  <g
     inkscape:groupmode="layer"
     id="layer2"
     inkscape:label="Layer 2"
     sodipodi:insensitive="true"
     style="display:none">
    <path
       sodipodi:type="star"
       style="display:inline;opacity:1;fill:#ffffff;fill-opacity:1;stroke:none;stroke-width:0;stroke-miterlimit:4;stroke-dasharray:none;stroke-opacity:1"
       id="path4544"
       sodipodi:sides="6"
       sodipodi:cx="25"
       sodipodi:cy="25"
       sodipodi:r1="16.97154"
       sodipodi:r2="0.12698668"
       sodipodi:arg1="0.51509729"
       sodipodi:arg2="1.0386962"
       inkscape:flatsided="false"
       inkscape:rounded="0"
       inkscape:randomized="0"
       d="M 39.769395,33.360512 25.064426,25.10943 25.144282,41.970927 24.937444,25.110509 10.374887,33.610415 24.873018,25.00108 10.230605,16.639488 24.935574,24.89057 24.855718,8.0290729 25.062556,24.889491 39.625113,16.389585 25.126982,24.99892 Z"
       transform="rotate(-59.512901,25,25.000002)" />
  </g>
</svg>
