<?xml version="1.0" encoding="UTF-8" standalone="no"?>
<svg
   xmlns:dc="http://purl.org/dc/elements/1.1/"
   xmlns:cc="http://creativecommons.org/ns#"
   xmlns:rdf="http://www.w3.org/1999/02/22-rdf-syntax-ns#"
   xmlns:svg="http://www.w3.org/2000/svg"
   xmlns="http://www.w3.org/2000/svg"
   xmlns:xlink="http://www.w3.org/1999/xlink"
   xmlns:sodipodi="http://sodipodi.sourceforge.net/DTD/sodipodi-0.dtd"
   xmlns:inkscape="http://www.inkscape.org/namespaces/inkscape"
   id="svg838"
   version="1.1"
   viewBox="0 0 50 50"
   height="50mm"
   width="50mm"
   sodipodi:docname="all.svg"
   inkscape:version="0.92.1 r15371">
  <sodipodi:namedview
     pagecolor="#ffffff"
     bordercolor="#666666"
     borderopacity="1"
     objecttolerance="10"
     gridtolerance="10"
     guidetolerance="10"
     inkscape:pageopacity="0"
     inkscape:pageshadow="2"
     inkscape:window-width="1920"
     inkscape:window-height="1017"
     id="namedview34"
     showgrid="false"
     inkscape:zoom="4"
     inkscape:cx="46.548201"
     inkscape:cy="88.058944"
     inkscape:window-x="-8"
     inkscape:window-y="-8"
     inkscape:window-maximized="1"
     inkscape:current-layer="layer1" />
  <defs
     id="defs832">
    <linearGradient
       inkscape:collect="always"
       id="linearGradient4562">
      <stop
         style="stop-color:#000000;stop-opacity:0"
         offset="0"
         id="stop4558" />
      <stop
         style="stop-color:#000000;stop-opacity:1"
         offset="1"
         id="stop4560" />
    </linearGradient>
    <clipPath
       id="clipPath1665"
       clipPathUnits="userSpaceOnUse">
      <circle
         style="fill:#ba9d69;fill-opacity:1;stroke-width:0.26458332"
         id="circle1667"
         cx="105.64434"
         cy="166.7872"
         r="10.583333" />
    </clipPath>
    <clipPath
       id="clipPath1683"
       clipPathUnits="userSpaceOnUse">
      <path
         style="fill:#e6e6e6;fill-opacity:1;stroke:none;stroke-width:0.26458332px;stroke-linecap:butt;stroke-linejoin:miter;stroke-opacity:1"
         d="m 110.98326,177.51228 -5.00818,11.9535 -4.96094,-12.09524 z"
         id="path1685" />
    </clipPath>
    <clipPath
       id="clipPath1740"
       clipPathUnits="userSpaceOnUse">
      <circle
         style="fill:#6f7c91;fill-opacity:1;stroke:none;stroke-width:0.99999994"
         id="circle1742"
         cx="698.92859"
         cy="610.01971"
         r="52.142853" />
    </clipPath>
    <clipPath
       id="clipPath1768"
       clipPathUnits="userSpaceOnUse">
      <circle
         style="fill:#6f7c91;fill-opacity:1;stroke:none;stroke-width:0.99999994"
         id="circle1770"
         cx="698.92853"
         cy="610.01971"
         r="52.142849" />
    </clipPath>
    <clipPath
       id="clipPath4565"
       clipPathUnits="userSpaceOnUse">
      <path
         style="opacity:1;fill:#b3b3b3;fill-opacity:1;stroke:none;stroke-width:0;stroke-miterlimit:4;stroke-dasharray:none;stroke-opacity:1"
         d="m -508.37772,-126.91673 -3.76203,3.59409 h 0.90588 v 3.3321 h 5.71233 v -3.3321 h 0.90588 z"
         id="path4567" />
    </clipPath>
    <clipPath
       id="clipPath4649"
       clipPathUnits="userSpaceOnUse">
      <path
         id="path4651"
         d="m -565.85332,-131.21266 a 2.1064651,2.1064651 0 0 0 -2.10632,2.10633 2.1064651,2.1064651 0 0 0 0.36947,1.18804 c 0.31445,0.60733 0.61404,1.20779 0.70281,1.71256 0.004,0.0205 0.01,0.0423 0.013,0.0625 h 0.003 a 1.0368611,0.57846111 0 0 0 1.01957,0.4749 1.0368611,0.57846111 0 0 0 1.03714,-0.57825 1.0368611,0.57846111 0 0 0 0,-0.005 c 0.0792,-0.40962 0.34296,-0.99196 0.69763,-1.65985 a 2.1064651,2.1064651 0 0 0 0.21497,-0.39894 c 0.0114,-0.0205 0.0206,-0.0389 0.032,-0.0594 h -0.0103 a 2.1064651,2.1064651 0 0 0 0.13538,-0.7369 2.1064651,2.1064651 0 0 0 -2.10632,-2.10634 z"
         style="opacity:1;fill:#666666;fill-opacity:1;stroke:none;stroke-width:0;stroke-miterlimit:4;stroke-dasharray:none;stroke-opacity:1" />
    </clipPath>
    <clipPath
       id="clipPath4698"
       clipPathUnits="userSpaceOnUse">
      <path
         style="opacity:1;fill:#ccff00;fill-opacity:1;stroke:none;stroke-width:0;stroke-miterlimit:4;stroke-dasharray:none;stroke-opacity:1"
         id="path4700"
         d="m -327.28907,-193.74146 0,31.45817 -27.24358,15.72909 -27.24358,-15.72909 0,-31.45817 27.24358,-15.72909 z" />
    </clipPath>
    <clipPath
       id="clipPath4706"
       clipPathUnits="userSpaceOnUse">
      <path
         style="opacity:1;fill:#ccff00;fill-opacity:1;stroke:none;stroke-width:0;stroke-miterlimit:4;stroke-dasharray:none;stroke-opacity:1"
         id="path4708"
         d="m -327.28907,-193.74146 0,31.45817 -27.24358,15.72909 -27.24358,-15.72909 0,-31.45817 27.24358,-15.72909 z" />
    </clipPath>
    <radialGradient
       inkscape:collect="always"
       xlink:href="#linearGradient4562"
       id="radialGradient4564"
       cx="25"
       cy="25"
       fx="25"
       fy="25"
       r="14.697785"
       gradientTransform="matrix(1.7382841,0,0,2.0071976,-18.457095,-25.17994)"
       gradientUnits="userSpaceOnUse" />
  </defs>
  <metadata
     id="metadata835">
    <rdf:RDF>
      <cc:Work
         rdf:about="">
        <dc:format>image/svg+xml</dc:format>
        <dc:type
           rdf:resource="http://purl.org/dc/dcmitype/StillImage" />
        <dc:title />
      </cc:Work>
    </rdf:RDF>
  </metadata>
  <g
     inkscape:groupmode="layer"
     id="layer1"
     inkscape:label="Layer 1"
     style="display:inline">
    <path
       d="m 39.697785,16.51423 0,16.97154 L 25,41.97154 10.302215,33.48577 l 0,-16.97154 L 25,8.0284595 Z"
       inkscape:randomized="0"
       inkscape:rounded="0"
       inkscape:flatsided="true"
       sodipodi:arg2="0"
       sodipodi:arg1="-0.52359878"
       sodipodi:r2="14.697785"
       sodipodi:r1="16.97154"
       sodipodi:cy="25"
       sodipodi:cx="25"
       sodipodi:sides="6"
       id="path4548"
       style="opacity:1;fill:url(#radialGradient4564);fill-opacity:1;stroke:none;stroke-width:0;stroke-miterlimit:4;stroke-dasharray:none;stroke-opacity:0"
       sodipodi:type="star" />
    <path
       inkscape:transform-center-y="8.5273188"
       inkscape:transform-center-x="-0.0029528561"
       sodipodi:nodetypes="ccccc"
       inkscape:connector-curvature="0"
       id="path4675"
       d="m 24.999082,41.983361 14.697784,-8.485769 -14.69475,-8.415025 -14.700821,8.41502 z"
       style="fill:#333333;fill-opacity:1;stroke:none;stroke-width:0.26458332px;stroke-linecap:butt;stroke-linejoin:miter;stroke-opacity:1" />
    <path
       sodipodi:type="star"
       style="opacity:1;fill:#000000;fill-opacity:1;stroke:none;stroke-width:0;stroke-miterlimit:4;stroke-dasharray:none;stroke-opacity:1"
       id="path4534"
       sodipodi:sides="6"
       sodipodi:cx="25"
       sodipodi:cy="25"
       sodipodi:r1="16.97154"
       sodipodi:r2="14.697785"
       sodipodi:arg1="-0.52359878"
       sodipodi:arg2="0"
       inkscape:flatsided="true"
       inkscape:rounded="0"
       inkscape:randomized="0"
       d="m 39.697785,16.51423 0,16.97154 L 25,41.97154 10.302215,33.48577 l 0,-16.97154 L 25,8.0284595 Z" />
    <path
       sodipodi:type="star"
       style="opacity:1;fill:#ffffff;fill-opacity:1;stroke:none;stroke-width:0;stroke-miterlimit:4;stroke-dasharray:none;stroke-opacity:1"
       id="path4526"
       sodipodi:sides="6"
       sodipodi:cx="25"
       sodipodi:cy="25"
       sodipodi:r1="16.555204"
       sodipodi:r2="4.2162185"
       sodipodi:arg1="0.50649638"
       sodipodi:arg2="1.8821035"
       inkscape:flatsided="false"
       inkscape:rounded="0"
       inkscape:randomized="0"
       d="M 39.476691,33.031203 23.708559,29.013562 25.28312,41.552783 20.878433,25.88836 10.806429,33.521581 22.169874,21.874798 10.523309,16.968797 26.291441,20.986438 24.71688,8.4472167 29.121567,24.11164 39.193571,16.478419 27.830126,28.125202 Z"
       transform="rotate(-95.255107,55.317902,1.3214745)" />
    <path
       d="m 35.87522,18.721188 0,12.557623 L 25,37.557623 14.12478,31.278812 l 0,-12.557623 L 25,12.442377 Z"
       inkscape:randomized="0"
       inkscape:rounded="0"
       inkscape:flatsided="true"
       sodipodi:arg2="0"
       sodipodi:arg1="-0.52359878"
       sodipodi:r2="10.386006"
       sodipodi:r1="12.557623"
       sodipodi:cy="25"
       sodipodi:cx="25"
       sodipodi:sides="6"
       id="path4538"
       style="opacity:1;fill:#666666;fill-opacity:1;stroke:none;stroke-width:0;stroke-miterlimit:4;stroke-dasharray:none;stroke-opacity:1"
       sodipodi:type="star"
       transform="rotate(12.653688,25,25)" />
    <path
       inkscape:transform-center-y="8.547038"
       inkscape:transform-center-x="7.350881"
       style="fill:#4d4d4d;fill-opacity:1;stroke:none;stroke-width:0.26458332px;stroke-linecap:butt;stroke-linejoin:miter;stroke-opacity:1"
       d="M 24.991577,41.979239 24.928083,25.117672 10.293792,33.493469 Z"
       id="path4673"
       inkscape:connector-curvature="0"
       sodipodi:nodetypes="cccc" />
    <path
       sodipodi:type="star"
       style="opacity:1;fill:#cccccc;fill-opacity:1;stroke:none;stroke-width:0;stroke-miterlimit:4;stroke-dasharray:none;stroke-opacity:1"
       id="path4540"
       sodipodi:sides="6"
       sodipodi:cx="25"
       sodipodi:cy="25"
       sodipodi:r1="8.5939932"
       sodipodi:r2="7.4228716"
       sodipodi:arg1="-0.52359878"
       sodipodi:arg2="0"
       inkscape:flatsided="true"
       inkscape:rounded="0"
       inkscape:randomized="0"
       d="m 32.442616,20.703003 0,8.593994 L 25,33.593993 l -7.442616,-4.296996 0,-8.593994 L 25,16.406007 Z"
       transform="rotate(16.472184,25,25)" />
    <path
       sodipodi:type="star"
       style="opacity:1;fill:#4d4d4d;fill-opacity:1;stroke:none;stroke-width:0;stroke-miterlimit:4;stroke-dasharray:none;stroke-opacity:1"
       id="path4578"
       sodipodi:sides="6"
       sodipodi:cx="25"
       sodipodi:cy="25"
       sodipodi:r1="6.5917034"
       sodipodi:r2="5.4517856"
       sodipodi:arg1="-0.52359878"
       sodipodi:arg2="0"
       inkscape:flatsided="true"
       inkscape:rounded="0"
       inkscape:randomized="0"
       d="m 30.708583,21.704148 0,6.591704 L 25,31.591703 l -5.708583,-3.295851 0,-6.591704 L 25,18.408297 Z" />
    <path
       sodipodi:nodetypes="ccccc"
       inkscape:connector-curvature="0"
       id="path4590"
       d="M 39.697784,16.514229 25,8.0284594 l 5.0176,18.6641086 9.680183,6.793201 z"
       style="fill:#1a1a1a;fill-opacity:1;stroke:none;stroke-width:0.26458332px;stroke-linecap:butt;stroke-linejoin:miter;stroke-opacity:1"
       inkscape:transform-center-x="-7.3432302"
       inkscape:transform-center-y="-4.209495" />
    <path
       inkscape:transform-center-y="-1.7969259"
       inkscape:transform-center-x="-3.1037926"
       inkscape:connector-curvature="0"
       id="path4686"
       d="m 31.208682,28.565796 -9.6e-5,-7.145572 -6.193277,-3.57569 -0.01748,4.240024 2.546348,1.470134 6.8e-5,2.937125 z"
       style="opacity:1;fill:#808080;fill-opacity:1;stroke:none;stroke-width:0;stroke-miterlimit:4;stroke-dasharray:none;stroke-opacity:1"
       sodipodi:nodetypes="ccccccc" />
    <path
       style="fill:#4d4d4d;fill-opacity:1;stroke:none;stroke-width:0.26458332px;stroke-linecap:butt;stroke-linejoin:miter;stroke-opacity:1"
       d="M 39.697784,16.514229 29.258897,27.458886 39.697784,33.485769 Z"
       id="path4580"
       inkscape:connector-curvature="0"
       sodipodi:nodetypes="cccc" />
    <path
       sodipodi:nodetypes="cccc"
       inkscape:connector-curvature="0"
       id="path4671"
       d="M 39.697784,16.514229 30.0176,26.692568 39.697784,33.485769 Z"
       style="fill:#4d4d4d;fill-opacity:1;stroke:none;stroke-width:0.26458332px;stroke-linecap:butt;stroke-linejoin:miter;stroke-opacity:1"
       inkscape:transform-center-x="-7.4188196"
       inkscape:transform-center-y="-0.0014186035" />
    <path
       style="opacity:1;fill:#808080;fill-opacity:1;stroke:none;stroke-width:0;stroke-miterlimit:4;stroke-dasharray:none;stroke-opacity:1"
       d="m 25.651293,9.9380154 -13.369714,6.9669886 -0.65127,15.062011 12.718446,8.095017 13.369715,-6.966986 0.65127,-15.062011 z m 0.747146,3.5828026 9.242057,6.950665 -1.398415,11.479204 -10.640472,4.528542 -9.242059,-6.950664 1.398415,-11.479205 z"
       id="path4592"
       inkscape:connector-curvature="0"
       sodipodi:nodetypes="cccccccccccccc" />
    <path
       sodipodi:nodetypes="cccc"
       inkscape:connector-curvature="0"
       id="path4677"
       d="M 10.291335,16.510785 24.925627,24.886581 24.98912,8.0250146 Z"
       style="fill:#999999;fill-opacity:1;stroke:none;stroke-width:0.26458332px;stroke-linecap:butt;stroke-linejoin:miter;stroke-opacity:1"
       inkscape:transform-center-x="7.353338"
       inkscape:transform-center-y="-8.5456198" />
    <path
       style="fill:#333333;fill-opacity:1;stroke:none;stroke-width:0.26458332px;stroke-linecap:butt;stroke-linejoin:miter;stroke-opacity:1"
       d="M 10.291517,16.519346 V 33.490885 L 21.458957,22.651725 28.948923,21.932179 24.989307,8.0335762 Z"
       id="path4597"
       inkscape:connector-curvature="0"
       sodipodi:nodetypes="cccccc"
       inkscape:transform-center-x="7.3557157"
       inkscape:transform-center-y="-4.2434147" />
    <path
       inkscape:connector-curvature="0"
       id="path4667"
       d="m 25.000024,20.082301 -4.258872,2.458861 v 4.917724 l 4.258872,2.458861 4.258873,-2.458861 v -4.917724 z m 0,3.170894 1.512796,0.873414 v 1.746829 l -1.512796,0.873415 -1.512796,-0.873415 v -1.746829 z"
       style="opacity:1;fill:#666666;fill-opacity:1;stroke:none;stroke-width:0;stroke-miterlimit:4;stroke-dasharray:none;stroke-opacity:1"
       sodipodi:nodetypes="cccccccccccccc" />
    <path
       sodipodi:nodetypes="cccccccccccccc"
       style="opacity:1;fill:#cccccc;fill-opacity:1;stroke:none;stroke-width:0;stroke-miterlimit:4;stroke-dasharray:none;stroke-opacity:1"
       d="m 26.913963,14.36619 -10.166138,3.659396 -1.91394,10.633836 8.252198,6.974435 10.166141,-3.659395 1.91394,-10.633836 z m -0.0741,0.411701 7.932696,6.704409 -1.839839,10.222133 -9.772535,3.517723 -7.932692,-6.704414 1.839839,-10.222132 z"
       id="path4669"
       inkscape:connector-curvature="0" />
    <path
       style="opacity:1;fill:#666666;fill-opacity:1;stroke:none;stroke-width:0;stroke-miterlimit:4;stroke-dasharray:none;stroke-opacity:1"
       d="m 27.421361,17.466386 -7.727784,1.664334 -2.424606,7.530706 2.038742,-2.359923 1.903915,-4.739208 6.478876,-1.087448 z"
       id="path4681"
       inkscape:connector-curvature="0"
       inkscape:transform-center-x="2.666227"
       inkscape:transform-center-y="-2.9381849"
       sodipodi:nodetypes="ccccccc" />
  </g>
  <g
     inkscape:groupmode="layer"
     id="layer2"
     inkscape:label="Layer 2"
     style="display:inline">
    <path
       sodipodi:type="star"
       style="display:inline;opacity:1;fill:#ffffff;fill-opacity:1;stroke:none;stroke-width:0;stroke-miterlimit:4;stroke-dasharray:none;stroke-opacity:1"
       id="path4544"
       sodipodi:sides="6"
       sodipodi:cx="25"
       sodipodi:cy="25"
       sodipodi:r1="16.97154"
       sodipodi:r2="5.1718992"
       sodipodi:arg1="0.51509729"
       sodipodi:arg2="2.2304568"
       inkscape:flatsided="false"
       inkscape:rounded="0"
       inkscape:randomized="0"
       d="M 39.769395,33.360512 21.830409,29.086837 25.144282,41.970927 19.8759,24.298472 10.374887,33.610415 23.045491,20.211635 10.230605,16.639488 28.169591,20.913163 24.855718,8.0290729 30.1241,25.701528 39.625113,16.389585 26.954509,29.788365 Z"
       transform="rotate(-59.512901,25,25.000002)" />
  </g>
</svg>
