<?xml version="1.0" encoding="UTF-8" standalone="no"?>
<!-- Created with Inkscape (http://www.inkscape.org/) -->

<svg
   xmlns:dc="http://purl.org/dc/elements/1.1/"
   xmlns:cc="http://creativecommons.org/ns#"
   xmlns:rdf="http://www.w3.org/1999/02/22-rdf-syntax-ns#"
   xmlns:svg="http://www.w3.org/2000/svg"
   xmlns="http://www.w3.org/2000/svg"
   xmlns:sodipodi="http://sodipodi.sourceforge.net/DTD/sodipodi-0.dtd"
   xmlns:inkscape="http://www.inkscape.org/namespaces/inkscape"
   width="50mm"
   height="50mm"
   viewBox="0 0 50 50"
   version="1.1"
   id="svg838"
   inkscape:version="0.92.1 r15371"
   sodipodi:docname="add-icon.svg">
  <defs
     id="defs832">
    <clipPath
       clipPathUnits="userSpaceOnUse"
       id="clipPath1665">
      <circle
         r="10.583333"
         cy="166.7872"
         cx="105.64434"
         id="circle1667"
         style="fill:#ba9d69;fill-opacity:1;stroke-width:0.26458332" />
    </clipPath>
    <clipPath
       clipPathUnits="userSpaceOnUse"
       id="clipPath1683">
      <path
         sodipodi:nodetypes="cccc"
         inkscape:connector-curvature="0"
         id="path1685"
         d="m 110.98326,177.51228 -5.00818,11.9535 -4.96094,-12.09524 z"
         style="fill:#e6e6e6;fill-opacity:1;stroke:none;stroke-width:0.26458332px;stroke-linecap:butt;stroke-linejoin:miter;stroke-opacity:1" />
    </clipPath>
    <clipPath
       clipPathUnits="userSpaceOnUse"
       id="clipPath1740">
      <circle
         r="52.142853"
         cy="610.01971"
         cx="698.92859"
         id="circle1742"
         style="fill:#6f7c91;fill-opacity:1;stroke:none;stroke-width:0.99999994" />
    </clipPath>
    <clipPath
       clipPathUnits="userSpaceOnUse"
       id="clipPath1768">
      <circle
         r="52.142849"
         cy="610.01971"
         cx="698.92853"
         id="circle1770"
         style="fill:#6f7c91;fill-opacity:1;stroke:none;stroke-width:0.99999994" />
    </clipPath>
    <clipPath
       clipPathUnits="userSpaceOnUse"
       id="clipPath4565">
      <path
         inkscape:connector-curvature="0"
         id="path4567"
         d="m -508.37772,-126.91673 -3.76203,3.59409 h 0.90588 v 3.3321 h 5.71233 v -3.3321 h 0.90588 z"
         style="opacity:1;fill:#b3b3b3;fill-opacity:1;stroke:none;stroke-width:0;stroke-miterlimit:4;stroke-dasharray:none;stroke-opacity:1" />
    </clipPath>
    <clipPath
       clipPathUnits="userSpaceOnUse"
       id="clipPath4649">
      <path
         style="opacity:1;fill:#666666;fill-opacity:1;stroke:none;stroke-width:0;stroke-miterlimit:4;stroke-dasharray:none;stroke-opacity:1"
         d="m -565.85332,-131.21266 a 2.1064651,2.1064651 0 0 0 -2.10632,2.10633 2.1064651,2.1064651 0 0 0 0.36947,1.18804 c 0.31445,0.60733 0.61404,1.20779 0.70281,1.71256 0.004,0.0205 0.01,0.0423 0.013,0.0625 h 0.003 a 1.0368611,0.57846111 0 0 0 1.01957,0.4749 1.0368611,0.57846111 0 0 0 1.03714,-0.57825 1.0368611,0.57846111 0 0 0 0,-0.005 c 0.0792,-0.40962 0.34296,-0.99196 0.69763,-1.65985 a 2.1064651,2.1064651 0 0 0 0.21497,-0.39894 c 0.0114,-0.0205 0.0206,-0.0389 0.032,-0.0594 h -0.0103 a 2.1064651,2.1064651 0 0 0 0.13538,-0.7369 2.1064651,2.1064651 0 0 0 -2.10632,-2.10634 z"
         id="path4651"
         inkscape:connector-curvature="0" />
    </clipPath>
  </defs>
  <sodipodi:namedview
     id="base"
     pagecolor="#ffffff"
     bordercolor="#666666"
     borderopacity="1.0"
     inkscape:pageopacity="0.0"
     inkscape:pageshadow="2"
     inkscape:zoom="1.7959482"
     inkscape:cx="68.26893"
     inkscape:cy="76.503013"
     inkscape:document-units="mm"
     inkscape:current-layer="layer1"
     showgrid="false"
     inkscape:snap-global="false"
     inkscape:window-width="1920"
     inkscape:window-height="1017"
     inkscape:window-x="-8"
     inkscape:window-y="-8"
     inkscape:window-maximized="1"
     inkscape:measure-start="0,0"
     inkscape:measure-end="0,0" />
  <metadata
     id="metadata835">
    <rdf:RDF>
      <cc:Work
         rdf:about="">
        <dc:format>image/svg+xml</dc:format>
        <dc:type
           rdf:resource="http://purl.org/dc/dcmitype/StillImage" />
        <dc:title></dc:title>
      </cc:Work>
    </rdf:RDF>
  </metadata>
  <g
     inkscape:label="Layer 1"
     inkscape:groupmode="layer"
     id="layer1"
     transform="translate(0,-247)">
    <circle
       style="fill:#5599ff;fill-opacity:1;stroke:none;stroke-width:0.26458332"
       id="path1723"
       cy="161.40105"
       cx="184.92485"
       r="0" />
    <path
       style="opacity:1;fill:#ffffff;fill-opacity:1;stroke:#ffffff;stroke-width:0;stroke-miterlimit:4;stroke-dasharray:none;stroke-opacity:1"
       d="m 22.493945,254.02691 v 15.46735 H 7.0266078 v 5.0115 H 22.493945 v 15.46733 h 5.012107 v -15.46733 h 15.46734 v -5.0115 h -15.46734 v -15.46735 z"
       id="rect5415"
       inkscape:connector-curvature="0" />
  </g>
</svg>
