<?xml version="1.0" encoding="UTF-8" standalone="no"?>
<svg
   xmlns:dc="http://purl.org/dc/elements/1.1/"
   xmlns:cc="http://creativecommons.org/ns#"
   xmlns:rdf="http://www.w3.org/1999/02/22-rdf-syntax-ns#"
   xmlns:svg="http://www.w3.org/2000/svg"
   xmlns="http://www.w3.org/2000/svg"
   xmlns:sodipodi="http://sodipodi.sourceforge.net/DTD/sodipodi-0.dtd"
   xmlns:inkscape="http://www.inkscape.org/namespaces/inkscape"
   id="svg838"
   version="1.1"
   viewBox="0 0 50 50"
   height="50mm"
   width="50mm"
   sodipodi:docname="repo-icon.svg"
   inkscape:version="0.92.1 r15371">
  <sodipodi:namedview
     pagecolor="#ffffff"
     bordercolor="#666666"
     borderopacity="1"
     objecttolerance="10"
     gridtolerance="10"
     guidetolerance="10"
     inkscape:pageopacity="0"
     inkscape:pageshadow="2"
     inkscape:window-width="1920"
     inkscape:window-height="1017"
     id="namedview33"
     showgrid="false"
     inkscape:zoom="1.2488333"
     inkscape:cx="94.488189"
     inkscape:cy="94.488189"
     inkscape:window-x="-8"
     inkscape:window-y="-8"
     inkscape:window-maximized="1"
     inkscape:current-layer="svg838" />
  <defs
     id="defs832">
    <clipPath
       id="clipPath1665"
       clipPathUnits="userSpaceOnUse">
      <circle
         style="fill:#ba9d69;fill-opacity:1;stroke-width:0.26458332"
         id="circle1667"
         cx="105.64434"
         cy="166.7872"
         r="10.583333" />
    </clipPath>
    <clipPath
       id="clipPath1683"
       clipPathUnits="userSpaceOnUse">
      <path
         style="fill:#e6e6e6;fill-opacity:1;stroke:none;stroke-width:0.26458332px;stroke-linecap:butt;stroke-linejoin:miter;stroke-opacity:1"
         d="m 110.98326,177.51228 -5.00818,11.9535 -4.96094,-12.09524 z"
         id="path1685" />
    </clipPath>
    <clipPath
       id="clipPath1740"
       clipPathUnits="userSpaceOnUse">
      <circle
         style="fill:#6f7c91;fill-opacity:1;stroke:none;stroke-width:0.99999994"
         id="circle1742"
         cx="698.92859"
         cy="610.01971"
         r="52.142853" />
    </clipPath>
    <clipPath
       id="clipPath1768"
       clipPathUnits="userSpaceOnUse">
      <circle
         style="fill:#6f7c91;fill-opacity:1;stroke:none;stroke-width:0.99999994"
         id="circle1770"
         cx="698.92853"
         cy="610.01971"
         r="52.142849" />
    </clipPath>
    <clipPath
       id="clipPath4565"
       clipPathUnits="userSpaceOnUse">
      <path
         style="opacity:1;fill:#b3b3b3;fill-opacity:1;stroke:none;stroke-width:0;stroke-miterlimit:4;stroke-dasharray:none;stroke-opacity:1"
         d="m -508.37772,-126.91673 -3.76203,3.59409 h 0.90588 v 3.3321 h 5.71233 v -3.3321 h 0.90588 z"
         id="path4567" />
    </clipPath>
    <clipPath
       id="clipPath4649"
       clipPathUnits="userSpaceOnUse">
      <path
         id="path4651"
         d="m -565.85332,-131.21266 a 2.1064651,2.1064651 0 0 0 -2.10632,2.10633 2.1064651,2.1064651 0 0 0 0.36947,1.18804 c 0.31445,0.60733 0.61404,1.20779 0.70281,1.71256 0.004,0.0205 0.01,0.0423 0.013,0.0625 h 0.003 a 1.0368611,0.57846111 0 0 0 1.01957,0.4749 1.0368611,0.57846111 0 0 0 1.03714,-0.57825 1.0368611,0.57846111 0 0 0 0,-0.005 c 0.0792,-0.40962 0.34296,-0.99196 0.69763,-1.65985 a 2.1064651,2.1064651 0 0 0 0.21497,-0.39894 c 0.0114,-0.0205 0.0206,-0.0389 0.032,-0.0594 h -0.0103 a 2.1064651,2.1064651 0 0 0 0.13538,-0.7369 2.1064651,2.1064651 0 0 0 -2.10632,-2.10634 z"
         style="opacity:1;fill:#666666;fill-opacity:1;stroke:none;stroke-width:0;stroke-miterlimit:4;stroke-dasharray:none;stroke-opacity:1" />
    </clipPath>
    <clipPath
       id="clipPath4698"
       clipPathUnits="userSpaceOnUse">
      <path
         style="opacity:1;fill:#ccff00;fill-opacity:1;stroke:none;stroke-width:0;stroke-miterlimit:4;stroke-dasharray:none;stroke-opacity:1"
         id="path4700"
         d="m -327.28907,-193.74146 0,31.45817 -27.24358,15.72909 -27.24358,-15.72909 0,-31.45817 27.24358,-15.72909 z" />
    </clipPath>
    <clipPath
       id="clipPath4706"
       clipPathUnits="userSpaceOnUse">
      <path
         style="opacity:1;fill:#ccff00;fill-opacity:1;stroke:none;stroke-width:0;stroke-miterlimit:4;stroke-dasharray:none;stroke-opacity:1"
         id="path4708"
         d="m -327.28907,-193.74146 0,31.45817 -27.24358,15.72909 -27.24358,-15.72909 0,-31.45817 27.24358,-15.72909 z" />
    </clipPath>
  </defs>
  <metadata
     id="metadata835">
    <rdf:RDF>
      <cc:Work
         rdf:about="">
        <dc:format>image/svg+xml</dc:format>
        <dc:type
           rdf:resource="http://purl.org/dc/dcmitype/StillImage" />
        <dc:title />
      </cc:Work>
    </rdf:RDF>
  </metadata>
  <g
     transform="matrix(1.27128,0,0,1.27128,-6.7152613,-320.93811)"
     id="layer1">
    <circle
       r="0"
       cx="184.92485"
       cy="161.40105"
       id="path1723"
       style="fill:#5599ff;fill-opacity:1;stroke:none;stroke-width:0.26458332" />
    <g
       id="g4765"
       transform="matrix(3.4489302,0,0,3.4620533,2055.6315,679.09301)">
      <g
         transform="matrix(0.75982213,0,0,0.75982213,-142.13328,-28.696091)"
         id="g4750"
         style="fill:#cccccc;fill-opacity:1">
        <rect
           style="opacity:1;fill:#cccccc;fill-opacity:1;stroke:#cccccc;stroke-width:0;stroke-miterlimit:4;stroke-dasharray:none;stroke-opacity:1"
           id="rect4746"
           width="10.002002"
           height="6.0505934"
           x="-593.57556"
           y="-119.9353" />
        <rect
           y="-120.56834"
           x="-593.57556"
           height="2.828577"
           width="4.6758108"
           id="rect4748"
           style="opacity:1;fill:#cccccc;fill-opacity:1;stroke:#cccccc;stroke-width:0;stroke-miterlimit:4;stroke-dasharray:none;stroke-opacity:1" />
      </g>
      <g
         style="fill:#ffffff;fill-opacity:1"
         id="g4757"
         transform="matrix(0.75982213,0,0,0.75982213,-141.65305,-28.325004)">
        <rect
           y="-119.9353"
           x="-593.57556"
           height="6.0505934"
           width="10.002002"
           id="rect4752"
           style="opacity:1;fill:#ffffff;fill-opacity:1;stroke:#cccccc;stroke-width:0;stroke-miterlimit:4;stroke-dasharray:none;stroke-opacity:1" />
        <rect
           style="opacity:1;fill:#ffffff;fill-opacity:1;stroke:#cccccc;stroke-width:0;stroke-miterlimit:4;stroke-dasharray:none;stroke-opacity:1"
           id="rect4755"
           width="4.6758108"
           height="2.828577"
           x="-593.57556"
           y="-120.56834" />
      </g>
      <g
         transform="matrix(0.75982213,0,0,0.75982213,-141.12825,-28.0163)"
         id="g4763">
        <rect
           style="opacity:1;fill:#cccccc;fill-opacity:1;stroke:#cccccc;stroke-width:0;stroke-miterlimit:4;stroke-dasharray:none;stroke-opacity:1"
           id="rect4759"
           width="10.002002"
           height="6.0505934"
           x="-593.57556"
           y="-119.9353" />
        <rect
           y="-120.56834"
           x="-593.57556"
           height="2.828577"
           width="4.6758108"
           id="rect4761"
           style="opacity:1;fill:#cccccc;fill-opacity:1;stroke:#cccccc;stroke-width:0;stroke-miterlimit:4;stroke-dasharray:none;stroke-opacity:1" />
      </g>
    </g>
  </g>
</svg>
