<?xml version="1.0" encoding="UTF-8" standalone="no"?>
<!-- Created with Inkscape (http://www.inkscape.org/) -->

<svg
   xmlns:dc="http://purl.org/dc/elements/1.1/"
   xmlns:cc="http://creativecommons.org/ns#"
   xmlns:rdf="http://www.w3.org/1999/02/22-rdf-syntax-ns#"
   xmlns:svg="http://www.w3.org/2000/svg"
   xmlns="http://www.w3.org/2000/svg"
   xmlns:sodipodi="http://sodipodi.sourceforge.net/DTD/sodipodi-0.dtd"
   xmlns:inkscape="http://www.inkscape.org/namespaces/inkscape"
   width="50mm"
   height="50mm"
   viewBox="0 0 50 50"
   version="1.1"
   id="svg838"
   inkscape:version="0.92.1 r15371"
   sodipodi:docname="teams-icon.svg">
  <defs
     id="defs832">
    <clipPath
       clipPathUnits="userSpaceOnUse"
       id="clipPath1665">
      <circle
         r="10.583333"
         cy="166.7872"
         cx="105.64434"
         id="circle1667"
         style="fill:#ba9d69;fill-opacity:1;stroke-width:0.26458332" />
    </clipPath>
    <clipPath
       clipPathUnits="userSpaceOnUse"
       id="clipPath1683">
      <path
         sodipodi:nodetypes="cccc"
         inkscape:connector-curvature="0"
         id="path1685"
         d="m 110.98326,177.51228 -5.00818,11.9535 -4.96094,-12.09524 z"
         style="fill:#e6e6e6;fill-opacity:1;stroke:none;stroke-width:0.26458332px;stroke-linecap:butt;stroke-linejoin:miter;stroke-opacity:1" />
    </clipPath>
    <clipPath
       clipPathUnits="userSpaceOnUse"
       id="clipPath1740">
      <circle
         r="52.142853"
         cy="610.01971"
         cx="698.92859"
         id="circle1742"
         style="fill:#6f7c91;fill-opacity:1;stroke:none;stroke-width:0.99999994" />
    </clipPath>
    <clipPath
       clipPathUnits="userSpaceOnUse"
       id="clipPath1768">
      <circle
         r="52.142849"
         cy="610.01971"
         cx="698.92853"
         id="circle1770"
         style="fill:#6f7c91;fill-opacity:1;stroke:none;stroke-width:0.99999994" />
    </clipPath>
    <clipPath
       clipPathUnits="userSpaceOnUse"
       id="clipPath4565">
      <path
         inkscape:connector-curvature="0"
         id="path4567"
         d="m -508.37772,-126.91673 -3.76203,3.59409 h 0.90588 v 3.3321 h 5.71233 v -3.3321 h 0.90588 z"
         style="opacity:1;fill:#b3b3b3;fill-opacity:1;stroke:none;stroke-width:0;stroke-miterlimit:4;stroke-dasharray:none;stroke-opacity:1" />
    </clipPath>
    <clipPath
       clipPathUnits="userSpaceOnUse"
       id="clipPath4649">
      <path
         style="opacity:1;fill:#666666;fill-opacity:1;stroke:none;stroke-width:0;stroke-miterlimit:4;stroke-dasharray:none;stroke-opacity:1"
         d="m -565.85332,-131.21266 a 2.1064651,2.1064651 0 0 0 -2.10632,2.10633 2.1064651,2.1064651 0 0 0 0.36947,1.18804 c 0.31445,0.60733 0.61404,1.20779 0.70281,1.71256 0.004,0.0205 0.01,0.0423 0.013,0.0625 h 0.003 a 1.0368611,0.57846111 0 0 0 1.01957,0.4749 1.0368611,0.57846111 0 0 0 1.03714,-0.57825 1.0368611,0.57846111 0 0 0 0,-0.005 c 0.0792,-0.40962 0.34296,-0.99196 0.69763,-1.65985 a 2.1064651,2.1064651 0 0 0 0.21497,-0.39894 c 0.0114,-0.0205 0.0206,-0.0389 0.032,-0.0594 h -0.0103 a 2.1064651,2.1064651 0 0 0 0.13538,-0.7369 2.1064651,2.1064651 0 0 0 -2.10632,-2.10634 z"
         id="path4651"
         inkscape:connector-curvature="0" />
    </clipPath>
    <clipPath
       clipPathUnits="userSpaceOnUse"
       id="clipPath4698">
      <path
         inkscape:transform-center-y="5.3544867e-006"
         inkscape:transform-center-x="-4.4665532e-006"
         d="m -327.28907,-193.74146 0,31.45817 -27.24358,15.72909 -27.24358,-15.72909 0,-31.45817 27.24358,-15.72909 z"
         inkscape:randomized="0"
         inkscape:rounded="0"
         inkscape:flatsided="true"
         sodipodi:arg2="0"
         sodipodi:arg1="-0.52359878"
         sodipodi:r2="27.24358"
         sodipodi:r1="31.458176"
         sodipodi:cy="-178.01237"
         sodipodi:cx="-354.53265"
         sodipodi:sides="6"
         id="path4700"
         style="opacity:1;fill:#ccff00;fill-opacity:1;stroke:none;stroke-width:0;stroke-miterlimit:4;stroke-dasharray:none;stroke-opacity:1"
         sodipodi:type="star" />
    </clipPath>
    <clipPath
       clipPathUnits="userSpaceOnUse"
       id="clipPath4706">
      <path
         inkscape:transform-center-y="5.3544867e-006"
         inkscape:transform-center-x="-4.4665532e-006"
         d="m -327.28907,-193.74146 0,31.45817 -27.24358,15.72909 -27.24358,-15.72909 0,-31.45817 27.24358,-15.72909 z"
         inkscape:randomized="0"
         inkscape:rounded="0"
         inkscape:flatsided="true"
         sodipodi:arg2="0"
         sodipodi:arg1="-0.52359878"
         sodipodi:r2="27.24358"
         sodipodi:r1="31.458176"
         sodipodi:cy="-178.01237"
         sodipodi:cx="-354.53265"
         sodipodi:sides="6"
         id="path4708"
         style="opacity:1;fill:#ccff00;fill-opacity:1;stroke:none;stroke-width:0;stroke-miterlimit:4;stroke-dasharray:none;stroke-opacity:1"
         sodipodi:type="star" />
    </clipPath>
  </defs>
  <sodipodi:namedview
     id="base"
     pagecolor="#ffffff"
     bordercolor="#666666"
     borderopacity="1.0"
     inkscape:pageopacity="0.2"
     inkscape:pageshadow="2"
     inkscape:zoom="0.12189986"
     inkscape:cx="296.35831"
     inkscape:cy="902.84713"
     inkscape:document-units="mm"
     inkscape:current-layer="layer1"
     showgrid="false"
     inkscape:snap-global="false"
     inkscape:window-width="1920"
     inkscape:window-height="1017"
     inkscape:window-x="-8"
     inkscape:window-y="-8"
     inkscape:window-maximized="1"
     inkscape:measure-start="0,0"
     inkscape:measure-end="0,0"
     showguides="false"
     inkscape:pagecheckerboard="true" />
  <metadata
     id="metadata835">
    <rdf:RDF>
      <cc:Work
         rdf:about="">
        <dc:format>image/svg+xml</dc:format>
        <dc:type
           rdf:resource="http://purl.org/dc/dcmitype/StillImage" />
        <dc:title></dc:title>
      </cc:Work>
    </rdf:RDF>
  </metadata>
  <g
     inkscape:label="Layer 1"
     inkscape:groupmode="layer"
     id="layer1"
     transform="translate(0,-247)">
    <circle
       style="fill:#5599ff;fill-opacity:1;stroke:none;stroke-width:0.26458332"
       id="path1723"
       cy="161.40105"
       cx="184.92485"
       r="0" />
    <g
       transform="matrix(2.6358741,0,0,2.6306077,1598.6025,617.10515)"
       id="g4710"
       style="fill:#cccccc;fill-opacity:1">
      <path
         style="opacity:1;fill:#cccccc;fill-opacity:1;stroke:none;stroke-width:0;stroke-miterlimit:4;stroke-dasharray:none;stroke-opacity:1"
         d="m -599.51274,-128.57914 a 3.1366311,3.1366311 0 0 1 -2.06189,0.77824 3.1366311,3.1366311 0 0 1 -2.06034,-0.77463 5.3286212,5.3286212 0 0 0 -3.26853,4.90875 5.3286212,5.3286212 0 0 0 0.0129,0.25735 h 10.63501 a 5.3286212,5.3286212 0 0 0 0.009,-0.25735 5.3286212,5.3286212 0 0 0 -3.26647,-4.91236 z"
         id="path4706"
         inkscape:connector-curvature="0" />
      <circle
         style="opacity:1;fill:#cccccc;fill-opacity:1;stroke:none;stroke-width:0;stroke-miterlimit:4;stroke-dasharray:none;stroke-opacity:1"
         id="circle4708"
         cx="-601.57477"
         cy="-130.93759"
         r="2.7328436" />
    </g>
    <g
       style="fill:#cccccc;fill-opacity:1"
       id="g4717"
       transform="matrix(2.6358741,0,0,2.6306077,1623.2469,617.10515)">
      <path
         inkscape:connector-curvature="0"
         id="path4712"
         d="m -599.51274,-128.57914 a 3.1366311,3.1366311 0 0 1 -2.06189,0.77824 3.1366311,3.1366311 0 0 1 -2.06034,-0.77463 5.3286212,5.3286212 0 0 0 -3.26853,4.90875 5.3286212,5.3286212 0 0 0 0.0129,0.25735 h 10.63501 a 5.3286212,5.3286212 0 0 0 0.009,-0.25735 5.3286212,5.3286212 0 0 0 -3.26647,-4.91236 z"
         style="opacity:1;fill:#cccccc;fill-opacity:1;stroke:none;stroke-width:0;stroke-miterlimit:4;stroke-dasharray:none;stroke-opacity:1" />
      <circle
         r="2.7328436"
         cy="-130.93759"
         cx="-601.57477"
         id="circle4714"
         style="opacity:1;fill:#cccccc;fill-opacity:1;stroke:none;stroke-width:0;stroke-miterlimit:4;stroke-dasharray:none;stroke-opacity:1" />
    </g>
    <g
       style="fill:#ffffff;fill-opacity:1"
       id="g4724"
       transform="matrix(2.9576596,0,0,2.9517502,1804.4198,663.12173)">
      <path
         inkscape:connector-curvature="0"
         id="path4719"
         d="m -599.51274,-128.57914 a 3.1366311,3.1366311 0 0 1 -2.06189,0.77824 3.1366311,3.1366311 0 0 1 -2.06034,-0.77463 5.3286212,5.3286212 0 0 0 -3.26853,4.90875 5.3286212,5.3286212 0 0 0 0.0129,0.25735 h 10.63501 a 5.3286212,5.3286212 0 0 0 0.009,-0.25735 5.3286212,5.3286212 0 0 0 -3.26647,-4.91236 z"
         style="opacity:1;fill:#ffffff;fill-opacity:1;stroke:none;stroke-width:0;stroke-miterlimit:4;stroke-dasharray:none;stroke-opacity:1" />
      <circle
         r="2.7328436"
         cy="-130.93759"
         cx="-601.57477"
         id="circle4721"
         style="opacity:1;fill:#ffffff;fill-opacity:1;stroke:none;stroke-width:0;stroke-miterlimit:4;stroke-dasharray:none;stroke-opacity:1" />
    </g>
  </g>
</svg>
